<svg width="182" height="18" viewBox="0 0 182 18" fill="none" xmlns="http://www.w3.org/2000/svg">
<path d="M3.89092 15.7186C4.61904 15.7186 5.14997 15.635 5.48369 15.4677C5.81742 15.2852 5.98428 14.981 5.98428 14.5551C5.98428 14.1597 5.80225 13.8327 5.43819 13.5741C5.08929 13.3156 4.50528 13.0342 3.68613 12.73C3.18555 12.5475 2.72288 12.3574 2.29815 12.1597C1.88857 11.9468 1.5321 11.7034 1.22871 11.4297C0.925326 11.1559 0.682617 10.8289 0.500586 10.4487C0.333724 10.0532 0.250293 9.57414 0.250293 9.01141C0.250293 7.91635 0.652279 7.05703 1.45625 6.43346C2.26022 5.79468 3.35241 5.47529 4.73281 5.47529C5.4306 5.47529 6.09805 5.54373 6.73516 5.68061C7.37227 5.80228 7.8501 5.92395 8.16866 6.04563L7.66807 8.28137C7.36468 8.14449 6.97787 8.02281 6.50762 7.91635C6.03737 7.79468 5.49128 7.73384 4.86934 7.73384C4.30807 7.73384 3.853 7.8327 3.5041 8.03042C3.15521 8.21293 2.98076 8.5019 2.98076 8.89734C2.98076 9.09506 3.0111 9.26996 3.07178 9.42205C3.14762 9.57414 3.26898 9.71863 3.43584 9.85551C3.6027 9.97719 3.82266 10.1065 4.0957 10.2433C4.36875 10.365 4.70248 10.4943 5.09688 10.6312C5.74916 10.8745 6.30283 11.1179 6.75791 11.3612C7.21299 11.5894 7.58464 11.8555 7.87285 12.1597C8.17624 12.4487 8.39619 12.7833 8.53272 13.1635C8.66924 13.5437 8.7375 14 8.7375 14.5323C8.7375 15.673 8.31276 16.5399 7.46328 17.1331C6.62897 17.711 5.4306 18 3.86817 18C2.82149 18 1.97959 17.9087 1.34248 17.7262C0.705371 17.5589 0.257878 17.4221 0 17.3156L0.477832 15.0114C0.887403 15.1787 1.37282 15.3384 1.93408 15.4905C2.51052 15.6426 3.16279 15.7186 3.89092 15.7186Z" fill="white"/>
<path d="M11.1729 2.62357L13.9261 2.1673V5.77186H18.1583V8.07605H13.9261V12.9354C13.9261 13.8935 14.0778 14.5779 14.3812 14.9886C14.6846 15.3992 15.2003 15.6046 15.9284 15.6046C16.429 15.6046 16.8689 15.5513 17.2482 15.4449C17.6426 15.3384 17.9535 15.2395 18.1811 15.1483L18.6362 17.3384C18.3176 17.4753 17.9005 17.6122 17.3847 17.7491C16.8689 17.9011 16.2622 17.9772 15.5644 17.9772C14.7149 17.9772 14.002 17.8631 13.4255 17.635C12.8643 17.4068 12.4168 17.0798 12.083 16.654C11.7493 16.2129 11.5142 15.6882 11.3777 15.0798C11.2411 14.4563 11.1729 13.749 11.1729 12.9582V2.62357Z" fill="white"/>
<path d="M27.6005 8.25855C27.373 8.18251 27.0544 8.10646 26.6448 8.03042C26.2504 7.93916 25.7878 7.89354 25.2568 7.89354C24.9535 7.89354 24.6273 7.92395 24.2784 7.98479C23.9447 8.04563 23.7096 8.09886 23.5731 8.14449V17.7034H20.8198V6.34221C21.3508 6.14449 22.0106 5.96198 22.7994 5.79468C23.6034 5.61217 24.4908 5.52091 25.4616 5.52091C25.6437 5.52091 25.856 5.53612 26.0987 5.56654C26.3414 5.58175 26.5842 5.61217 26.8269 5.65779C27.0696 5.68821 27.3047 5.73384 27.5322 5.79468C27.7598 5.8403 27.9418 5.88593 28.0783 5.93156L27.6005 8.25855Z" fill="white"/>
<path d="M42.3361 11.7947C42.3361 10.7452 42.4878 9.82509 42.7912 9.03422C43.1098 8.24335 43.5269 7.58935 44.0427 7.07224C44.5584 6.53992 45.15 6.14449 45.8175 5.88593C46.4849 5.61217 47.1676 5.47529 47.8653 5.47529C49.5036 5.47529 50.7778 5.98479 51.688 7.0038C52.6133 8.02281 53.076 9.54373 53.076 11.5665C53.076 11.7186 53.0684 11.8935 53.0532 12.0913C53.0532 12.2738 53.0456 12.4411 53.0305 12.5932H45.1804C45.2562 13.5513 45.59 14.2966 46.1816 14.8289C46.7883 15.346 47.6606 15.6046 48.7983 15.6046C49.4657 15.6046 50.0725 15.5437 50.6186 15.4221C51.1798 15.3004 51.6197 15.1711 51.9383 15.0342L52.3024 17.2928C52.1507 17.3688 51.9383 17.4525 51.6652 17.5437C51.4074 17.6198 51.104 17.6882 50.7551 17.7491C50.4214 17.8251 50.0573 17.8859 49.6629 17.9316C49.2685 17.9772 48.8665 18 48.4569 18C47.4103 18 46.5001 17.8479 45.7265 17.5437C44.9528 17.2243 44.3157 16.7909 43.8151 16.2433C43.3146 15.6806 42.9429 15.0266 42.7002 14.2814C42.4575 13.5209 42.3361 12.692 42.3361 11.7947ZM50.3228 10.5627C50.3228 10.1825 50.2697 9.82509 50.1635 9.49049C50.0573 9.14068 49.898 8.84411 49.6857 8.60076C49.4885 8.34221 49.2382 8.14449 48.9348 8.0076C48.6466 7.85551 48.2977 7.77947 47.8881 7.77947C47.4634 7.77947 47.0917 7.86312 46.7732 8.03042C46.4546 8.18251 46.1816 8.38783 45.954 8.64639C45.7416 8.90494 45.5748 9.20152 45.4534 9.53612C45.3321 9.87072 45.2486 10.2129 45.2031 10.5627H50.3228Z" fill="white"/>
<path d="M72.6047 10.1977C72.2558 11.5361 71.8766 12.8441 71.467 14.1217C71.0726 15.384 70.6782 16.5779 70.2838 17.7034H68.0312C67.7278 17.0038 67.4092 16.2053 67.0755 15.308C66.7418 14.4106 66.4081 13.4525 66.0743 12.4335C65.7406 11.4144 65.4069 10.3422 65.0732 9.21673C64.7394 8.09125 64.4133 6.94297 64.0947 5.77186H67.0072C67.1438 6.41065 67.303 7.10266 67.4851 7.84791C67.6671 8.57795 67.8567 9.3308 68.0539 10.1065C68.2511 10.8669 68.4559 11.6122 68.6683 12.3422C68.8807 13.0722 69.093 13.7414 69.3054 14.3498C69.5329 13.6502 69.7529 12.9278 69.9653 12.1825C70.1928 11.4373 70.4052 10.692 70.6024 9.94677C70.7996 9.20152 70.9816 8.47909 71.1485 7.77947C71.3305 7.06464 71.4898 6.39544 71.6263 5.77186H73.7424C73.8789 6.39544 74.0306 7.06464 74.1975 7.77947C74.3643 8.47909 74.5388 9.20152 74.7208 9.94677C74.918 10.692 75.1228 11.4373 75.3352 12.1825C75.5627 12.9278 75.7903 13.6502 76.0178 14.3498C76.215 13.7414 76.4198 13.0722 76.6321 12.3422C76.8445 11.6122 77.0493 10.8669 77.2465 10.1065C77.4589 9.3308 77.6561 8.57795 77.8381 7.84791C78.0201 7.10266 78.1794 6.41065 78.3159 5.77186H81.1602C80.8416 6.94297 80.5155 8.09125 80.1818 9.21673C79.848 10.3422 79.5143 11.4144 79.1806 12.4335C78.8469 13.4525 78.5131 14.4106 78.1794 15.308C77.8457 16.2053 77.5196 17.0038 77.201 17.7034H74.9711C74.5767 16.5779 74.1671 15.384 73.7424 14.1217C73.3328 12.8441 72.9536 11.5361 72.6047 10.1977Z" fill="white"/>
<path d="M82.5999 11.7947C82.5999 10.7452 82.7516 9.82509 83.055 9.03422C83.3735 8.24335 83.7907 7.58935 84.3064 7.07224C84.8222 6.53992 85.4138 6.14449 86.0812 5.88593C86.7487 5.61217 87.4313 5.47529 88.1291 5.47529C89.7674 5.47529 91.0416 5.98479 91.9518 7.0038C92.8771 8.02281 93.3397 9.54373 93.3397 11.5665C93.3397 11.7186 93.3322 11.8935 93.317 12.0913C93.317 12.2738 93.3094 12.4411 93.2942 12.5932H85.4441C85.52 13.5513 85.8537 14.2966 86.4453 14.8289C87.0521 15.346 87.9243 15.6046 89.062 15.6046C89.7295 15.6046 90.3362 15.5437 90.8823 15.4221C91.4436 15.3004 91.8835 15.1711 92.202 15.0342L92.5661 17.2928C92.4144 17.3688 92.2021 17.4525 91.929 17.5437C91.6711 17.6198 91.3677 17.6882 91.0188 17.7491C90.6851 17.8251 90.3211 17.8859 89.9267 17.9316C89.5323 17.9772 89.1303 18 88.7207 18C87.674 18 86.7639 17.8479 85.9902 17.5437C85.2166 17.2243 84.5795 16.7909 84.0789 16.2433C83.5783 15.6806 83.2067 15.0266 82.964 14.2814C82.7213 13.5209 82.5999 12.692 82.5999 11.7947ZM90.5865 10.5627C90.5865 10.1825 90.5334 9.82509 90.4272 9.49049C90.3211 9.14068 90.1618 8.84411 89.9494 8.60076C89.7522 8.34221 89.5019 8.14449 89.1985 8.0076C88.9103 7.85551 88.5614 7.77947 88.1519 7.77947C87.7271 7.77947 87.3555 7.86312 87.0369 8.03042C86.7184 8.18251 86.4453 8.38783 86.2178 8.64639C86.0054 8.90494 85.8385 9.20152 85.7172 9.53612C85.5958 9.87072 85.5124 10.2129 85.4669 10.5627H90.5865Z" fill="white"/>
<path d="M100.446 15.7643C101.295 15.7643 101.94 15.7186 102.38 15.6274V12.5703C102.228 12.5247 102.008 12.4791 101.72 12.4335C101.432 12.3878 101.113 12.365 100.764 12.365C100.461 12.365 100.15 12.3878 99.8312 12.4335C99.5278 12.4791 99.2472 12.5627 98.9893 12.6844C98.7466 12.8061 98.5494 12.981 98.3977 13.2091C98.246 13.4221 98.1702 13.6958 98.1702 14.0304C98.1702 14.6844 98.3749 15.1407 98.7845 15.3992C99.1941 15.6426 99.7478 15.7643 100.446 15.7643ZM100.218 5.47529C101.128 5.47529 101.894 5.58935 102.516 5.81749C103.138 6.04563 103.631 6.36502 103.995 6.77567C104.374 7.18631 104.64 7.68821 104.792 8.28137C104.958 8.85931 105.042 9.4981 105.042 10.1977V17.4297C104.617 17.5209 103.972 17.6274 103.108 17.7491C102.258 17.8859 101.295 17.9544 100.218 17.9544C99.505 17.9544 98.8528 17.8859 98.2612 17.7491C97.6696 17.6122 97.1614 17.3916 96.7366 17.0875C96.3271 16.7833 96.0009 16.3878 95.7582 15.9011C95.5307 15.4144 95.4169 14.8137 95.4169 14.0989C95.4169 13.4144 95.5459 12.8365 95.8037 12.365C96.0768 11.8935 96.4408 11.5133 96.8959 11.2243C97.351 10.9202 97.8744 10.7072 98.466 10.5856C99.0727 10.4487 99.7022 10.3802 100.355 10.3802C100.658 10.3802 100.976 10.403 101.31 10.4487C101.644 10.4791 102 10.5399 102.38 10.6312V10.1749C102.38 9.85551 102.342 9.55133 102.266 9.26236C102.19 8.97338 102.053 8.72243 101.856 8.50951C101.674 8.28137 101.424 8.10646 101.105 7.98479C100.802 7.86312 100.415 7.80228 99.945 7.80228C99.3078 7.80228 98.7238 7.84791 98.1929 7.93916C97.662 8.03042 97.2297 8.13688 96.8959 8.25855L96.5546 6.02281C96.9035 5.90114 97.4117 5.77947 98.0791 5.65779C98.7466 5.53612 99.4595 5.47529 100.218 5.47529Z" fill="white"/>
<path d="M115.194 8.25855C114.967 8.18251 114.648 8.10646 114.238 8.03042C113.844 7.93916 113.381 7.89354 112.851 7.89354C112.547 7.89354 112.221 7.92395 111.872 7.98479C111.538 8.04563 111.303 8.09886 111.167 8.14449V17.7034H108.413V6.34221C108.944 6.14449 109.604 5.96198 110.393 5.79468C111.197 5.61217 112.084 5.52091 113.055 5.52091C113.237 5.52091 113.45 5.53612 113.692 5.56654C113.935 5.58175 114.178 5.61217 114.421 5.65779C114.663 5.68821 114.898 5.73384 115.126 5.79468C115.353 5.8403 115.535 5.88593 115.672 5.93156L115.194 8.25855Z" fill="white"/>
<path d="M122.437 0C123.074 0 123.636 0.0608366 124.121 0.18251C124.606 0.288973 124.97 0.387832 125.213 0.479087L124.69 2.76046C124.432 2.63878 124.129 2.53992 123.78 2.46388C123.446 2.38783 123.082 2.34981 122.687 2.34981C122.248 2.34981 121.876 2.41825 121.573 2.55513C121.269 2.67681 121.026 2.85171 120.844 3.07985C120.662 3.30798 120.533 3.58935 120.458 3.92395C120.382 4.24335 120.344 4.59316 120.344 4.97338V5.77186H124.667V8.07605H120.344V17.7034H117.591V4.92776C117.591 3.39163 117.993 2.19011 118.797 1.32319C119.601 0.441064 120.814 0 122.437 0Z" fill="white"/>
<path d="M139.83 2.62357L142.583 2.1673V5.77186H146.816V8.07605H142.583V12.9354C142.583 13.8935 142.735 14.5779 143.039 14.9886C143.342 15.3992 143.858 15.6046 144.586 15.6046C145.086 15.6046 145.526 15.5513 145.906 15.4449C146.3 15.3384 146.611 15.2395 146.838 15.1483L147.294 17.3384C146.975 17.4753 146.558 17.6122 146.042 17.7491C145.526 17.9011 144.92 17.9772 144.222 17.9772C143.372 17.9772 142.659 17.8631 142.083 17.635C141.522 17.4068 141.074 17.0798 140.74 16.654C140.407 16.2129 140.172 15.6882 140.035 15.0798C139.899 14.4563 139.83 13.749 139.83 12.9582V2.62357Z" fill="white"/>
<path d="M159.239 17.3384C158.708 17.4753 158.018 17.6122 157.168 17.7491C156.319 17.9011 155.386 17.9772 154.369 17.9772C153.414 17.9772 152.61 17.8403 151.957 17.5665C151.32 17.2928 150.805 16.9125 150.41 16.4259C150.031 15.9392 149.758 15.3612 149.591 14.692C149.424 14.0076 149.341 13.2624 149.341 12.4563V5.77186H152.094V12.0228C152.094 13.3004 152.276 14.2129 152.64 14.7605C153.019 15.308 153.672 15.5817 154.597 15.5817C154.931 15.5817 155.279 15.5665 155.644 15.5361C156.023 15.5057 156.303 15.4677 156.485 15.4221V5.77186H159.239V17.3384Z" fill="white"/>
<path d="M169.524 8.25855C169.296 8.18251 168.977 8.10646 168.568 8.03042C168.174 7.93916 167.711 7.89354 167.18 7.89354C166.877 7.89354 166.55 7.92395 166.202 7.98479C165.868 8.04563 165.633 8.09886 165.496 8.14449V17.7034H162.743V6.34221C163.274 6.14449 163.934 5.96198 164.723 5.79468C165.526 5.61217 166.414 5.52091 167.385 5.52091C167.567 5.52091 167.779 5.53612 168.022 5.56654C168.265 5.58175 168.507 5.61217 168.75 5.65779C168.993 5.68821 169.228 5.73384 169.455 5.79468C169.683 5.8403 169.865 5.88593 170.001 5.93156L169.524 8.25855Z" fill="white"/>
<path fill-rule="evenodd" clip-rule="evenodd" d="M134.392 17.7491C135.241 17.6122 135.932 17.4753 136.462 17.3384V12H133.709V15.4221C133.527 15.4677 133.247 15.5057 132.867 15.5361C132.503 15.5665 132.154 15.5817 131.821 15.5817C130.895 15.5817 130.243 15.308 129.864 14.7605C129.5 14.2129 129.318 13.3004 129.318 12.0228V5.77186H126.565V12.4563C126.565 13.2624 126.648 14.0076 126.815 14.692C126.982 15.3612 127.255 15.9392 127.634 16.4259C128.028 16.9125 128.544 17.2928 129.181 17.5665C129.834 17.8403 130.637 17.9772 131.593 17.9772C132.609 17.9772 133.542 17.9011 134.392 17.7491ZM136.462 10.597V5.77186H133.709V10.597H136.462Z" fill="white"/>
<path fill-rule="evenodd" clip-rule="evenodd" d="M171.715 9.03422C171.412 9.82509 171.26 10.7452 171.26 11.7947C171.26 12.692 171.382 13.5209 171.624 14.2814C171.867 15.0266 172.239 15.6806 172.739 16.2433C173.24 16.7909 173.877 17.2243 174.65 17.5437C175.424 17.8479 176.334 18 177.381 18C177.791 18 178.193 17.9772 178.587 17.9316C178.981 17.8859 179.345 17.8251 179.679 17.7491C180.028 17.6882 180.331 17.6198 180.589 17.5437C180.862 17.4525 181.075 17.3688 181.226 17.2928L180.862 15.0342C180.544 15.1711 180.104 15.3004 179.543 15.4221C178.996 15.5437 178.39 15.6046 177.722 15.6046C176.585 15.6046 175.712 15.346 175.106 14.8289C174.514 14.2966 174.18 13.5513 174.104 12.5932H176.687V10.5627H174.127C174.173 10.2129 174.256 9.87072 174.377 9.53612C174.499 9.20152 174.666 8.90494 174.878 8.64639C175.106 8.38783 175.379 8.18251 175.697 8.03042C176.016 7.86312 176.387 7.77947 176.812 7.77947C177.222 7.77947 177.571 7.85551 177.859 8.0076C178.162 8.14449 178.412 8.34221 178.61 8.60076C178.822 8.84411 178.981 9.14068 179.088 9.49049C179.194 9.82509 179.247 10.1825 179.247 10.5627H177.722V12.5932H181.954C181.97 12.4411 181.977 12.2738 181.977 12.0913C181.992 11.8935 182 11.7186 182 11.5665C182 9.54373 181.537 8.02281 180.612 7.0038C179.702 5.98479 178.428 5.47529 176.789 5.47529C176.092 5.47529 175.409 5.61217 174.742 5.88593C174.074 6.14449 173.482 6.53992 172.967 7.07224C172.451 7.58935 172.034 8.24335 171.715 9.03422Z" fill="white"/>
<path fill-rule="evenodd" clip-rule="evenodd" d="M58.6118 2.1673L55.8585 2.62357V10.5057H58.6118V8.07605H62.844V5.77186H58.6118V2.1673ZM55.8585 11.29V12.9582C55.8585 13.749 55.9268 14.4563 56.0633 15.0798C56.1999 15.6882 56.435 16.2129 56.7687 16.654C57.1024 17.0798 57.5499 17.4068 58.1112 17.635C58.6876 17.8631 59.4006 17.9772 60.25 17.9772C60.9478 17.9772 61.5546 17.9011 62.0704 17.7491C62.5861 17.6122 63.0033 17.4753 63.3218 17.3384L62.8667 15.1483C62.6392 15.2395 62.3282 15.3384 61.9338 15.4449C61.5546 15.5513 61.1147 15.6046 60.6141 15.6046C59.886 15.6046 59.3702 15.3992 59.0668 14.9886C58.7635 14.5779 58.6118 13.8935 58.6118 12.9354V11.29H55.8585Z" fill="white"/>
<path fill-rule="evenodd" clip-rule="evenodd" d="M29.7922 9.03422C29.4888 9.82509 29.3371 10.7452 29.3371 11.7947C29.3371 12.692 29.4584 13.5209 29.7011 14.2814C29.9438 15.0266 30.3155 15.6806 30.8161 16.2433C31.3167 16.7909 31.9538 17.2243 32.7274 17.5437C33.501 17.8479 34.4112 18 35.4579 18C35.8675 18 36.2694 17.9772 36.6638 17.9316C37.0582 17.8859 37.4223 17.8251 37.756 17.7491C38.1049 17.6882 38.4083 17.6198 38.6662 17.5437C38.9392 17.4525 39.1516 17.3688 39.3033 17.2928L38.9392 15.0342C38.6207 15.1711 38.1808 15.3004 37.6195 15.4221C37.0734 15.5437 36.4666 15.6046 35.7992 15.6046C34.6615 15.6046 33.7893 15.346 33.1825 14.8289C32.5909 14.2966 32.2572 13.5513 32.1813 12.5932H34.7639V10.5627H32.2041C32.2496 10.2129 32.333 9.87072 32.4544 9.53612C32.5757 9.20152 32.7426 8.90494 32.955 8.64639C33.1825 8.38783 33.4555 8.18251 33.7741 8.03042C34.0926 7.86312 34.4643 7.77947 34.889 7.77947C35.2986 7.77947 35.6475 7.85551 35.9357 8.0076C36.2391 8.14449 36.4894 8.34221 36.6866 8.60076C36.899 8.84411 37.0582 9.14068 37.1644 9.49049C37.2706 9.82509 37.3237 10.1825 37.3237 10.5627H35.6592V12.5932H40.0314C40.0466 12.4411 40.0542 12.2738 40.0542 12.0913C40.0693 11.8935 40.0769 11.7186 40.0769 11.5665C40.0769 9.54373 39.6143 8.02281 38.6889 7.0038C37.7788 5.98479 36.5046 5.47529 34.8663 5.47529C34.1685 5.47529 33.4859 5.61217 32.8184 5.88593C32.151 6.14449 31.5594 6.53992 31.0436 7.07224C30.5279 7.58935 30.1107 8.24335 29.7922 9.03422Z" fill="white"/>
</svg>
